<svg viewBox="0 0 512 512" xmlns="http://www.w3.org/2000/svg"><path d="M305.402 465a17.098 17.098 0 0 0 34.196 0v-58.902h-34.196ZM140.729 465a17.098 17.098 0 0 0 34.196 0v-58.902H140.73Z" fill="#fafafa" class="fill-000000"></path><path d="m480.78 382.422-142.5-342a17.096 17.096 0 0 0-31.56 0l-82.39 197.733-50.722-121.733a17.096 17.096 0 0 0-31.562 0l-110.827 266A17.093 17.093 0 0 0 47 406.098h93.729V294a17.098 17.098 0 0 1 34.196 0v112.098h130.477v-56.415l-37.74-37.74a17.096 17.096 0 0 1 24.177-24.177l13.563 13.563V237a17.098 17.098 0 0 1 34.196 0v64.33l13.564-13.564a17.096 17.096 0 0 1 24.177 24.176l-37.74 37.74v56.416H465a17.093 17.093 0 0 0 15.78-23.676Z" fill="#fafafa" class="fill-000000"></path></svg>